<?xml version="1.0" ?><svg style="enable-background:new 0 0 512 512;" version="1.1" viewBox="0 0 512 512" xml:space="preserve" xmlns="http://www.w3.org/2000/svg" xmlns:xlink="http://www.w3.org/1999/xlink"><style type="text/css">.st0{fill:#333333;}.st1{fill:none;stroke:#333333;stroke-width:32;stroke-linecap:round;stroke-linejoin:round;stroke-miterlimit:10;}</style><g id="Layer_1"/><g id="Layer_2"><g><g><path class="st0" d="M208.15,380.19h-91.19c-5.7,0-10.32-4.62-10.32-10.32V142.13c0-5.7,4.62-10.32,10.32-10.32h91.19     c5.7,0,10.32,4.62,10.32,10.32v227.74C218.47,375.57,213.85,380.19,208.15,380.19z"/></g><g><path class="st0" d="M395.04,380.19h-91.19c-5.7,0-10.32-4.62-10.32-10.32V142.13c0-5.7,4.62-10.32,10.32-10.32h91.19     c5.7,0,10.32,4.62,10.32,10.32v227.74C405.36,375.57,400.74,380.19,395.04,380.19z"/></g></g></g></svg>