<?xml version="1.0" encoding="UTF-8"?>
<svg version="1.1" xmlns="http://www.w3.org/2000/svg" width="300" height="300">
<path d="M0 0 C0.85592743 -0.0087616 1.71185486 -0.01752319 2.59371948 -0.02655029 C42.27054103 -0.30495746 78.034396 15.82352478 106.6484375 42.93359375 C132.8093547 68.7492789 150.57572233 105.13451955 150.86366272 142.25036621 C150.86080169 143.97170574 150.85089613 145.69304782 150.83398438 147.41430664 C150.81252856 149.99656277 150.8339421 152.57602972 150.859375 155.15820312 C150.88578289 170.5996929 148.58172746 185.94712891 143.25 200.5 C142.95891357 201.30663086 142.66782715 202.11326172 142.36791992 202.94433594 C127.29210537 243.02817559 96.98593231 272.95759471 58.3125 290.5625 C39.70340746 298.39588837 20.07178889 301.33046242 0 301.125 C-0.88904022 301.12107239 -1.77808044 301.11714478 -2.69406128 301.11309814 C-16.84736833 301.02524358 -30.13348057 299.91570115 -43.6875 295.5625 C-44.74735107 295.24152344 -44.74735107 295.24152344 -45.82861328 294.9140625 C-84.00256116 283.13186758 -115.34527694 254.97549498 -134 220.125 C-143.27619266 202.2757663 -149.72841643 182.03961656 -149.92578125 161.83203125 C-149.93552979 161.00764557 -149.94527832 160.18325989 -149.95532227 159.33389282 C-150.27141466 125.72497336 -150.27141466 125.72497336 -145.6875 110.5625 C-145.34847656 109.31726563 -145.00945312 108.07203125 -144.66015625 106.7890625 C-139.97861126 91.1616988 -132.49615262 75.60740868 -122.6875 62.5625 C-121.75357422 61.31533203 -121.75357422 61.31533203 -120.80078125 60.04296875 C-100.81209433 34.29689127 -74.91835292 15.35731915 -43.6875 5.5625 C-42.9337207 5.31838379 -42.17994141 5.07426758 -41.40332031 4.82275391 C-27.75659171 0.60300517 -14.16766282 0.06259007 0 0 Z M-99.6875 50.5625 C-100.28820312 51.11035156 -100.88890625 51.65820312 -101.5078125 52.22265625 C-124.81783745 74.28586591 -139.36906962 108.42028642 -140.81225586 140.32006836 C-141.88330067 181.91064009 -130.09948641 217.48724864 -102.00390625 248.52734375 C-76.21706575 275.21241962 -40.25681012 291.01879707 -3.18359375 291.91381836 C31.8962298 292.19700269 64.56046907 281.46117548 91.3125 258.5625 C92.13234375 257.86511719 92.9521875 257.16773438 93.796875 256.44921875 C106.05473411 245.733109 120.30766253 231.13868446 126.3125 215.5625 C125.9825 214.9025 125.6525 214.2425 125.3125 213.5625 C124.70664062 214.44550781 124.10078125 215.32851562 123.4765625 216.23828125 C104.24531948 243.94042893 77.5262299 262.57441701 44.3125 269.5625 C39.3168068 270.40995694 34.46592845 270.69821089 29.41015625 270.66015625 C28.6875914 270.6587413 27.96502655 270.65732635 27.2205658 270.65586853 C24.93866635 270.65032225 22.65686921 270.6377802 20.375 270.625 C18.81705872 270.61997804 17.25911588 270.61541636 15.70117188 270.61132812 C11.90490919 270.6003705 8.10872187 270.58314372 4.3125 270.5625 C4.50136528 269.57512093 4.50136528 269.57512093 4.69404602 268.5677948 C8.44080965 248.97576475 12.17221848 229.38084351 15.89096832 209.78347778 C16.30803934 207.58600247 16.72537077 205.38857676 17.14276123 203.19116211 C18.5888907 195.57610855 20.0309665 187.96031607 21.46294498 180.34258747 C22.07104452 177.10778652 22.68144203 173.87345044 23.2953186 170.63973999 C23.97810194 167.04072706 24.65399405 163.44048591 25.328125 159.83984375 C25.53066391 158.78013367 25.73320282 157.72042358 25.94187927 156.62860107 C26.21476524 155.15910004 26.21476524 155.15910004 26.49316406 153.65991211 C26.65238342 152.81512802 26.81160278 151.97034393 26.97564697 151.09996033 C27.44409752 147.99781704 27.44409752 147.99781704 27.3125 142.5625 C49.5875 143.0575 49.5875 143.0575 72.3125 143.5625 C72.6425 141.5825 72.9725 139.6025 73.3125 137.5625 C16.2225 137.5625 -40.8675 137.5625 -99.6875 137.5625 C-99.3575 135.5825 -99.0275 133.6025 -98.6875 131.5625 C-41.5975 131.5625 15.4925 131.5625 74.3125 131.5625 C74.6425 129.5825 74.9725 127.6025 75.3125 125.5625 C18.5525 125.2325 -38.2075 124.9025 -96.6875 124.5625 C-96.6875 122.9125 -96.6875 121.2625 -96.6875 119.5625 C-39.5975 119.5625 17.4925 119.5625 76.3125 119.5625 C76.6425 117.5825 76.9725 115.6025 77.3125 113.5625 C20.8825 113.5625 -35.5475 113.5625 -93.6875 113.5625 C-93.3575 111.5825 -93.0275 109.6025 -92.6875 107.5625 C-35.9275 107.5625 20.8325 107.5625 79.3125 107.5625 C79.3125 105.5825 79.3125 103.6025 79.3125 101.5625 C57.57294791 101.53916666 35.83339789 101.52151868 14.09383583 101.51068783 C4.00037849 101.5055258 -6.09307108 101.49848486 -16.18652344 101.48706055 C-24.98128884 101.47711088 -33.77604862 101.47064589 -42.5708195 101.46841151 C-47.22999367 101.46710488 -51.88915174 101.46402206 -56.54832077 101.45676994 C-60.92963439 101.45000528 -65.31092523 101.44788396 -69.69224358 101.44939232 C-71.30396206 101.44911619 -72.91568127 101.44711371 -74.52739525 101.44329453 C-76.72063364 101.43835032 -78.91378492 101.43950442 -81.10702515 101.44224548 C-82.33669699 101.44132369 -83.56636883 101.4404019 -84.83330345 101.43945217 C-87.63395844 101.36561483 -87.63395844 101.36561483 -89.6875 102.5625 C-89.3575 101.964375 -89.0275 101.36625 -88.6875 100.75 C-87.47962012 98.50863529 -87.47962012 98.50863529 -87.6875 95.5625 C-31.9175 95.5625 23.8525 95.5625 81.3125 95.5625 C81.3125 93.9125 81.3125 92.2625 81.3125 90.5625 C27.1925 90.5625 -26.9275 90.5625 -82.6875 90.5625 C-69.74106414 64.66962829 -46.00303774 45.54315714 -18.6875 36.25 C-18.01299805 36.01958008 -17.33849609 35.78916016 -16.64355469 35.55175781 C-4.09387782 31.54127919 8.11757893 30.03103327 21.25 30.1875 C21.95005157 30.19215271 22.65010315 30.19680542 23.37136841 30.20159912 C33.6081495 30.28128323 43.41295998 30.64567124 53.3125 33.5625 C53.97636719 33.75585938 54.64023438 33.94921875 55.32421875 34.1484375 C82.83725749 42.38709235 106.99826292 59.67752595 122.578125 83.953125 C124.02520708 86.13026651 125.38235076 87.82298278 127.3125 89.5625 C119.65380094 63.21340063 92.03344015 39.48817583 68.95043945 26.75561523 C12.48946595 -3.25256291 -53.56310603 7.14647792 -99.6875 50.5625 Z M127.3125 89.5625 C128.3125 91.5625 128.3125 91.5625 128.3125 91.5625 Z M128.3125 91.5625 C129.3125 93.5625 129.3125 93.5625 129.3125 93.5625 Z M31.3125 164.5625 C30.63845716 167.12326097 29.973086 169.68576583 29.3125 172.25 C29.12171875 172.97123047 28.9309375 173.69246094 28.734375 174.43554688 C27.76384572 178.23100961 27.06294761 181.60865439 27.3125 185.5625 C28.3025 185.5625 29.2925 185.5625 30.3125 185.5625 C30.9725 182.2625 31.6325 178.9625 32.3125 175.5625 C34.2925 175.5625 36.2725 175.5625 38.3125 175.5625 C37.6525 178.8625 36.9925 182.1625 36.3125 185.5625 C37.6325 185.5625 38.9525 185.5625 40.3125 185.5625 C41.6325 178.6325 42.9525 171.7025 44.3125 164.5625 C42.9925 164.5625 41.6725 164.5625 40.3125 164.5625 C39.9825 167.5325 39.6525 170.5025 39.3125 173.5625 C37.3325 173.5625 35.3525 173.5625 33.3125 173.5625 C33.6425 170.5925 33.9725 167.6225 34.3125 164.5625 C33.3225 164.5625 32.3325 164.5625 31.3125 164.5625 Z M49.5625 166.5625 C45.41052074 172.09847235 45.03127791 177.81316989 45.3125 184.5625 C46.6325 184.8925 47.9525 185.2225 49.3125 185.5625 C48.9825 187.2125 48.6525 188.8625 48.3125 190.5625 C49.3025 190.5625 50.2925 190.5625 51.3125 190.5625 C51.6425 188.9125 51.9725 187.2625 52.3125 185.5625 C52.910625 185.500625 53.50875 185.43875 54.125 185.375 C57.26552542 184.20851913 57.89410876 182.53436737 59.3125 179.5625 C60.70605612 175.00177088 60.40511612 170.28592232 60.3125 165.5625 C56.20913359 163.5108168 53.22560336 163.89842483 49.5625 166.5625 Z M66.3125 167.5625 C65.1452484 170.32491797 65.1452484 170.32491797 64.5 173.4375 C64.24605469 174.46617187 63.99210938 175.49484375 63.73046875 176.5546875 C63.30913199 179.5867371 63.45911102 181.6410825 64.3125 184.5625 C65.47116921 185.92886155 65.47116921 185.92886155 68.625 185.9375 C72.4343429 185.93622209 72.4343429 185.93622209 74.75 183.1875 C76.48299462 180.7852086 76.48299462 180.7852086 76.3125 178.5625 C74.9925 178.5625 73.6725 178.5625 72.3125 178.5625 C71.9825 180.2125 71.6525 181.8625 71.3125 183.5625 C70.3225 183.2325 69.3325 182.9025 68.3125 182.5625 C68.45433696 180.81217156 68.60113429 179.06224466 68.75 177.3125 C68.83121094 176.33796875 68.91242188 175.3634375 68.99609375 174.359375 C69.26324584 171.99788247 69.66621968 169.84348935 70.3125 167.5625 C71.6325 167.5625 72.9525 167.5625 74.3125 167.5625 C74.3125 168.5525 74.3125 169.5425 74.3125 170.5625 C75.6325 170.5625 76.9525 170.5625 78.3125 170.5625 C77.93345792 167.27174004 77.93345792 167.27174004 76.3125 164.5625 C71.83429326 164.16443718 69.56502597 164.41617896 66.3125 167.5625 Z M86.3125 201.5625 C84.53840192 203.48272703 84.53840192 203.48272703 83.3125 205.5625 C85.2925 204.9025 87.2725 204.2425 89.3125 203.5625 C89.6425 204.2225 89.9725 204.8825 90.3125 205.5625 C90.3125 204.2425 90.3125 202.9225 90.3125 201.5625 C88.9925 201.5625 87.6725 201.5625 86.3125 201.5625 Z M24.3125 207.5625 C23.63886628 210.29011511 22.97340556 213.019299 22.3125 215.75 C22.12171875 216.51892578 21.9309375 217.28785156 21.734375 218.08007812 C20.79626579 221.98328253 20.05292792 225.51479795 20.3125 229.5625 C21.6325 229.2325 22.9525 228.9025 24.3125 228.5625 C24.6425 225.2625 24.9725 221.9625 25.3125 218.5625 C25.9725 218.8925 26.6325 219.2225 27.3125 219.5625 C27.9453125 221.84765625 27.9453125 221.84765625 28.4375 224.625 C28.60507813 225.54410156 28.77265625 226.46320313 28.9453125 227.41015625 C29.06648437 228.12042969 29.18765625 228.83070313 29.3125 229.5625 C30.9625 229.2325 32.6125 228.9025 34.3125 228.5625 C35.6325 221.6325 36.9525 214.7025 38.3125 207.5625 C36.9925 207.5625 35.6725 207.5625 34.3125 207.5625 C33.6525 211.1925 32.9925 214.8225 32.3125 218.5625 C31.6525 218.5625 30.9925 218.5625 30.3125 218.5625 C30.25191406 217.93601563 30.19132813 217.30953125 30.12890625 216.6640625 C30.00322266 215.43816406 30.00322266 215.43816406 29.875 214.1875 C29.79378906 213.37539062 29.71257812 212.56328125 29.62890625 211.7265625 C29.42159886 209.51977195 29.42159886 209.51977195 28.3125 207.5625 C26.9925 207.5625 25.6725 207.5625 24.3125 207.5625 Z M46.6875 206.875 C42.21991267 210.04933837 40.771255 215.06246305 39.80859375 220.30859375 C39.09367861 225.07578345 39.09367861 225.07578345 40.3125 229.5625 C45.18901365 230.95578961 48.57343369 230.17378254 53.3125 228.5625 C53.9725 224.9325 54.6325 221.3025 55.3125 217.5625 C53.0025 217.5625 50.6925 217.5625 48.3125 217.5625 C48.3125 218.5525 48.3125 219.5425 48.3125 220.5625 C48.9725 220.5625 49.6325 220.5625 50.3125 220.5625 C49.5625 223 49.5625 223 48.3125 225.5625 C46.234375 226.22265625 46.234375 226.22265625 44.3125 226.5625 C44.7041035 220.60742601 45.68374595 215.93430176 48.3125 210.5625 C49.3025 210.5625 50.2925 210.5625 51.3125 210.5625 C51.6425 211.5525 51.9725 212.5425 52.3125 213.5625 C53.6325 213.5625 54.9525 213.5625 56.3125 213.5625 C55.9825 211.9125 55.6525 210.2625 55.3125 208.5625 C52.23885574 207.27585822 50.02750133 206.47738079 46.6875 206.875 Z M62.3125 207.5625 C60.6625 214.8225 59.0125 222.0825 57.3125 229.5625 C58.6325 229.5625 59.9525 229.5625 61.3125 229.5625 C61.9725 226.2625 62.6325 222.9625 63.3125 219.5625 C65.2925 219.5625 67.2725 219.5625 69.3125 219.5625 C68.9825 222.8625 68.6525 226.1625 68.3125 229.5625 C69.6325 229.2325 70.9525 228.9025 72.3125 228.5625 C73.6325 221.6325 74.9525 214.7025 76.3125 207.5625 C74.9925 207.5625 73.6725 207.5625 72.3125 207.5625 C71.6525 210.2025 70.9925 212.8425 70.3125 215.5625 C68.3325 215.8925 66.3525 216.2225 64.3125 216.5625 C64.9725 213.5925 65.6325 210.6225 66.3125 207.5625 C64.9925 207.5625 63.6725 207.5625 62.3125 207.5625 Z M81.3125 207.5625 C80.66368552 210.10343855 80.01837101 212.64518273 79.375 215.1875 C79.19259766 215.90035156 79.01019531 216.61320313 78.82226562 217.34765625 C77.79933201 221.40219313 76.93292633 225.42197059 76.3125 229.5625 C80.2725 229.5625 84.2325 229.5625 88.3125 229.5625 C88.3125 228.5725 88.3125 227.5825 88.3125 226.5625 C86.0025 226.5625 83.6925 226.5625 81.3125 226.5625 C81.6425 224.2525 81.9725 221.9425 82.3125 219.5625 C84.6225 219.5625 86.9325 219.5625 89.3125 219.5625 C89.6425 218.5725 89.9725 217.5825 90.3125 216.5625 C88.0025 216.5625 85.6925 216.5625 83.3125 216.5625 C83.6425 214.5825 83.9725 212.6025 84.3125 210.5625 C86.9525 210.5625 89.5925 210.5625 92.3125 210.5625 C92.3125 209.5725 92.3125 208.5825 92.3125 207.5625 C88.6825 207.5625 85.0525 207.5625 81.3125 207.5625 Z M128.3125 207.5625 C129.3125 209.5625 129.3125 209.5625 129.3125 209.5625 Z M127.3125 209.5625 C128.3125 211.5625 128.3125 211.5625 128.3125 211.5625 Z M126.3125 211.5625 C127.3125 213.5625 127.3125 213.5625 127.3125 213.5625 Z M79.3125 231.5625 C79.3125 232.5525 79.3125 233.5425 79.3125 234.5625 C80.6325 234.2325 81.9525 233.9025 83.3125 233.5625 C82.9825 232.9025 82.6525 232.2425 82.3125 231.5625 C81.3225 231.5625 80.3325 231.5625 79.3125 231.5625 Z " fill="#00467E" transform="translate(149.6875,-0.5625)"/>
<path d="M0 0 C-1.93700943 10.49227887 -3.87536997 20.98430715 -5.81545925 31.476017 C-6.71626164 36.34765817 -7.61659714 41.21938467 -8.51586914 46.09130859 C-9.38361237 50.79232532 -10.25257741 55.4931147 -11.12239265 60.19374847 C-11.4541489 61.98782038 -11.78546364 63.78197399 -12.1163311 65.57621002 C-12.57956191 68.08780778 -13.04435675 70.59911137 -13.50952148 73.11035156 C-13.71452019 74.22489464 -13.71452019 74.22489464 -13.92366028 75.36195374 C-14.52520433 78.6012179 -15.14089625 81.81800059 -16 85 C-16.66 85 -17.32 85 -18 85 C-30.65462564 70.44023872 -38.47873809 51.52508488 -43 33 C-43.36931641 31.51693359 -43.36931641 31.51693359 -43.74609375 30.00390625 C-45.10884795 23.37810134 -45.08382422 16.8416701 -45.04296875 10.109375 C-45.03986694 9.13597168 -45.03676514 8.16256836 -45.03356934 7.15966797 C-45.02551644 4.77308143 -45.01423936 2.3865563 -45 0 C-38.91291842 -0.16737766 -32.82571052 -0.32796157 -26.73828125 -0.48217773 C-24.66629175 -0.5356348 -22.59434976 -0.59096697 -20.52246094 -0.64819336 C-17.54893237 -0.73000096 -14.57529961 -0.80512222 -11.6015625 -0.87890625 C-10.67131256 -0.90594131 -9.74106262 -0.93297638 -8.78262329 -0.96083069 C-7.92188202 -0.98092697 -7.06114075 -1.00102325 -6.17431641 -1.02172852 C-5.41486725 -1.04171402 -4.65541809 -1.06169952 -3.87295532 -1.08229065 C-2 -1 -2 -1 0 0 Z " fill="#00467E" transform="translate(95,143)"/>
<path d="M0 0 C2.64 0 5.28 0 8 0 C8.06058594 0.97582031 8.12117188 1.95164063 8.18359375 2.95703125 C8.30927734 4.86548828 8.30927734 4.86548828 8.4375 6.8125 C8.51871094 8.07707031 8.59992188 9.34164062 8.68359375 10.64453125 C8.87184547 13.99181893 8.87184547 13.99181893 10 17 C11.32 11.39 12.64 5.78 14 0 C16.31 0 18.62 0 21 0 C20.35731979 3.27146109 19.71031325 6.54205181 19.0625 9.8125 C18.88009766 10.74126953 18.69769531 11.67003906 18.50976562 12.62695312 C18.33251953 13.51962891 18.15527344 14.41230469 17.97265625 15.33203125 C17.81031494 16.15421143 17.64797363 16.9763916 17.48071289 17.82348633 C17 20 17 20 16 23 C6.58997722 24.33257403 6.58997722 24.33257403 2 23 C1.67 24.65 1.34 26.3 1 28 C-0.98 28 -2.96 28 -5 28 C-4.67 26.35 -4.34 24.7 -4 23 C-5.98 23.33 -7.96 23.66 -10 24 C-6.83686423 15.92470045 -3.44087411 7.95988877 0 0 Z M-1 18 C-1.33 19.32 -1.66 20.64 -2 22 C-0.68 22.33 0.64 22.66 2 23 C2 21.35 2 19.7 2 18 C1.01 18 0.02 18 -1 18 Z " fill="#00477E" transform="translate(150,163)"/>
<path d="M0 0 C1.9375 2.3125 1.9375 2.3125 3 5 C2.67 5.99 2.34 6.98 2 8 C2.16757813 8.91652344 2.33515625 9.83304688 2.5078125 10.77734375 C3.53738637 17.51860122 1.60956047 24.73791502 -2.3125 30.25 C-5.39823132 32.25931342 -7.32072717 32.92334848 -11 33 C-13.8125 32.1875 -13.8125 32.1875 -16 31 C-19.02815153 24.94369694 -16.08850303 18.01819306 -14.14453125 12.03515625 C-12.799891 8.46933551 -11.4002667 5.9422624 -9 3 C-8.54625 2.38125 -8.0925 1.7625 -7.625 1.125 C-4.98927289 -0.69973415 -3.09575283 -0.5159588 0 0 Z M-7 12 C-7.50471197 13.76949612 -8.00360685 15.54065223 -8.5 17.3125 C-8.7784375 18.29863281 -9.056875 19.28476563 -9.34375 20.30078125 C-10.11812196 23.02287203 -10.11812196 23.02287203 -10 26 C-7.97003414 25.40378744 -7.97003414 25.40378744 -6 24 C-5.08043198 21.36428432 -5.08043198 21.36428432 -4.75 18.375 C-4.60046875 17.37210938 -4.4509375 16.36921875 -4.296875 15.3359375 C-4.19890625 14.56507813 -4.1009375 13.79421875 -4 13 C-4.99 12.67 -5.98 12.34 -7 12 Z " fill="#00467E" transform="translate(118,199)"/>
<path d="M0 0 C1.4540625 0.0309375 1.4540625 0.0309375 2.9375 0.0625 C3.2675 2.3725 3.5975 4.6825 3.9375 7.0625 C4.5975 7.0625 5.2575 7.0625 5.9375 7.0625 C5.916875 6.093125 5.89625 5.12375 5.875 4.125 C5.9375 1.0625 5.9375 1.0625 6.9375 0.0625 C9.2475 0.0625 11.5575 0.0625 13.9375 0.0625 C12.2875 8.6425 10.6375 17.2225 8.9375 26.0625 C6.6275 26.0625 4.3175 26.0625 1.9375 26.0625 C1.6075 23.7525 1.2775 21.4425 0.9375 19.0625 C0.2775 19.0625 -0.3825 19.0625 -1.0625 19.0625 C-1.3925 21.3725 -1.7225 23.6825 -2.0625 26.0625 C-4.3725 26.0625 -6.6825 26.0625 -9.0625 26.0625 C-8.25618851 21.91543788 -7.44142159 17.77008262 -6.625 13.625 C-6.39490234 12.44099609 -6.16480469 11.25699219 -5.92773438 10.03710938 C-5.70537109 8.91240234 -5.48300781 7.78769531 -5.25390625 6.62890625 C-5.04967041 5.58677979 -4.84543457 4.54465332 -4.63500977 3.47094727 C-3.79302164 -0.07114775 -3.76839297 0.07690598 0 0 Z " fill="#00467F" transform="translate(128.0625,204.9375)"/>
<path d="M0 0 C0.886875 -0.02578125 1.77375 -0.0515625 2.6875 -0.078125 C3.8321875 0.08429688 3.8321875 0.08429688 5 0.25 C7.4294516 3.8941774 7.16179575 5.96241272 7 10.25 C4.69 10.25 2.38 10.25 0 10.25 C0 8.93 0 7.61 0 6.25 C-1.70840281 7.88412443 -2.93453047 9.11906094 -4 11.25 C-0.7 11.25 2.6 11.25 6 11.25 C5.44854729 16.48880078 4.57077907 21.22350697 3 26.25 C0.89758397 26.38496251 -1.2072961 26.48197307 -3.3125 26.5625 C-4.48425781 26.62050781 -5.65601563 26.67851562 -6.86328125 26.73828125 C-10 26.25 -10 26.25 -11.953125 24.09375 C-14.04910093 18.40020345 -12.14608729 12.24745908 -10.03515625 6.7265625 C-7.38356871 1.18324364 -5.96390595 0.10402162 0 0 Z M-5 13.25 C-5.33 15.23 -5.66 17.21 -6 19.25 C-5.01 19.58 -4.02 19.91 -3 20.25 C-2.67 19.26 -2.34 18.27 -2 17.25 C-2.66 17.25 -3.32 17.25 -4 17.25 C-4.33 15.93 -4.66 14.61 -5 13.25 Z " fill="#00467F" transform="translate(152,204.75)"/>
<path d="M0 0 C2.12472576 -0.05386629 4.24983652 -0.09273071 6.375 -0.125 C7.55835938 -0.14820313 8.74171875 -0.17140625 9.9609375 -0.1953125 C13 0 13 0 15 2 C15.65528721 9.33921679 14.54712388 16.6568999 10 22.625 C5.41760754 24.72526321 0.95941436 24.31267761 -4 24 C-4.02693575 21.87506859 -4.04636628 19.75004088 -4.0625 17.625 C-4.07410156 16.44164062 -4.08570312 15.25828125 -4.09765625 14.0390625 C-4 11 -4 11 -3 9 C-2.34 9 -1.68 9 -1 9 C-0.67 6.03 -0.34 3.06 0 0 Z M6 5 C5.67 6.32 5.34 7.64 5 9 C5.66 9 6.32 9 7 9 C7.33 9.66 7.66 10.32 8 11 C8 9.35 8 7.7 8 6 C7.34 5.67 6.68 5.34 6 5 Z M4 14 C4.33 15.32 4.66 16.64 5 18 C5.66 16.68 6.32 15.36 7 14 C6.01 14 5.02 14 4 14 Z " fill="#00467E" transform="translate(129,163)"/>
<path d="M0 0 C2 2 2 2 2.1953125 3.9453125 C2.13020833 5.96354167 2.06510417 7.98177083 2 10 C-0.31 10 -2.62 10 -5 10 C-5.33 9.01 -5.66 8.02 -6 7 C-7.485 13.435 -7.485 13.435 -9 20 C-8.34 20 -7.68 20 -7 20 C-6.67 18.35 -6.34 16.7 -6 15 C-4.02 15 -2.04 15 0 15 C0.45291114 18.89503578 0.28517401 20.57683856 -1.9375 23.875 C-5.59862335 26.41537131 -7.67775156 26.49492138 -12.01171875 26.37109375 C-14 26 -14 26 -16 24 C-17.00951668 17.18248477 -15.82735066 10.24753291 -13 4 C-9.12716126 -0.64740649 -5.69257015 -0.55992493 0 0 Z " fill="#00467E" transform="translate(100,205)"/>
<path d="M0 0 C1.65 0.33 3.3 0.66 5 1 C4.71743908 2.93884889 4.4236207 4.87605961 4.125 6.8125 C3.96257812 7.89144531 3.80015625 8.97039062 3.6328125 10.08203125 C3 13 3 13 1 16 C-0.32 15.67 -1.64 15.34 -3 15 C-3.36263859 9.1977825 -2.25684543 5.36000789 0 0 Z " fill="#00467E" transform="translate(202,167)"/>
</svg>
