<svg version="1.1" xmlns="http://www.w3.org/2000/svg" width="512" height="512">
<path d="M0 0 C-0.433125 -1.34191406 -0.433125 -1.34191406 -0.875 -2.7109375 C-6.09881941 -19.72462712 -6.09881941 -19.72462712 -2.3125 -27.4375 C1.29181858 -31.43147464 3.46705328 -32.82692537 8.875 -33.4375 C14.03070714 -33.2328311 17.93685338 -31.15240594 21.5335083 -27.40014648 C23.66136068 -23.91757826 24.57955587 -20.26587831 25.65136719 -16.34765625 C25.89725082 -15.47567596 26.14313446 -14.60369568 26.39646912 -13.70529175 C27.2054943 -10.82676544 28.00161602 -7.94485738 28.796875 -5.0625 C29.35500554 -3.05984239 29.9136265 -1.05732139 30.47271729 0.94506836 C31.64172338 5.13985929 32.80426538 9.33637539 33.96240234 13.53417969 C35.4484126 18.91810368 36.95112239 24.29719868 38.4587822 29.6750946 C39.61531529 33.80806512 40.76260682 37.9435572 41.90714264 42.0798645 C42.45761974 44.06464245 43.01107173 46.04859777 43.56752777 48.03170776 C44.34322212 50.80117643 45.10633141 53.57381326 45.86621094 56.34765625 C46.09886154 57.16855743 46.33151215 57.98945862 46.57121277 58.8352356 C47.59705962 62.62991732 48.176954 65.24156958 47 69 C45.81664062 68.60167969 44.63328125 68.20335937 43.4140625 67.79296875 C33.50285812 64.43929386 33.50285812 64.43929386 23.5 61.375 C20.39323933 60.47106772 17.43540407 59.39868209 14.44799805 58.15771484 C8.82088038 55.88360588 3.10070191 53.9811806 -2.66796875 52.1015625 C-4.88243287 51.36800634 -7.09661753 50.63360608 -9.31054688 49.8984375 C-12.75747879 48.7562647 -16.20570129 47.61908096 -19.65893555 46.49609375 C-23.02131141 45.40051226 -26.37617963 44.28412069 -29.73046875 43.1640625 C-30.75665817 42.83572418 -31.7828476 42.50738586 -32.84013367 42.1690979 C-38.8081268 40.15360247 -43.85724468 37.90349374 -48 33 C-49.65112454 28.04662639 -49.85967138 23.0360638 -47.8125 18.1875 C-44.28613752 13.93154528 -41.72539829 11.87594769 -36.1875 11.25 C-34.7927696 11.14988885 -33.39699314 11.06087116 -32 11 C-54.85980825 -3.1888465 -78.4236758 -13.92190954 -105 -19 C-105.85609863 -19.16371094 -106.71219727 -19.32742187 -107.59423828 -19.49609375 C-157.80780316 -28.63441501 -211.96431397 -17.01851006 -254.15771484 11.70703125 C-264.11424607 18.69481145 -273.20855898 26.61318597 -282 35 C-282.85207031 35.79921875 -283.70414062 36.5984375 -284.58203125 37.421875 C-319.39827456 70.97705752 -340.05957057 121.17321165 -341.203125 169.29296875 C-341.6999446 213.00992883 -331.35878926 256.33505042 -305 292 C-304.23300781 293.04929687 -303.46601563 294.09859375 -302.67578125 295.1796875 C-296.92777875 302.91176629 -290.6483079 310.03510601 -284 317 C-283.19949219 317.85335938 -282.39898437 318.70671875 -281.57421875 319.5859375 C-248.02211966 354.40104523 -197.82293435 375.05966216 -149.70703125 376.203125 C-101.74434051 376.74815558 -55.686853 363.36601425 -18 333 C-17.22197021 332.37424072 -17.22197021 332.37424072 -16.42822266 331.73583984 C-3.32663468 321.12642312 7.98984734 309.57341376 18 296 C19.17369141 294.40865234 19.17369141 294.40865234 20.37109375 292.78515625 C28.27874793 281.69799467 34.90252963 269.85737279 40.515625 257.453125 C42.61872387 253.9774774 45.13502505 251.62525172 49.02734375 250.3203125 C53.51185664 249.86177335 56.82337593 250.00661124 61 252 C63.92114444 254.52639519 65.81999243 256.34791468 66.24707031 260.26757812 C66.45726449 267.43443975 65.16699816 272.250095 61.75 278.5 C61.30180908 279.35239258 60.85361816 280.20478516 60.3918457 281.08300781 C49.45751118 301.51082012 35.96044985 319.26840103 20 336 C18.69482422 337.38445312 18.69482422 337.38445312 17.36328125 338.796875 C10.43460553 345.95819238 2.96274935 352.03893626 -5 358 C-5.54462891 358.41604492 -6.08925781 358.83208984 -6.65039062 359.26074219 C-44.17163578 387.86672172 -89.26992844 401.71764638 -136 404 C-137.20269531 404.06058594 -138.40539062 404.12117188 -139.64453125 404.18359375 C-185.00823853 405.19431855 -233.27467767 390.71419219 -270 364 C-270.96679688 363.30519531 -271.93359375 362.61039062 -272.9296875 361.89453125 C-292.18274455 347.76728809 -309.9943212 331.42120794 -324 312 C-324.763125 310.9584375 -325.52625 309.916875 -326.3125 308.84375 C-360.63176435 260.70144862 -375.43162826 201.38995398 -366.50683594 142.76025391 C-360.87779847 109.34350824 -348.93888053 76.63183443 -329 49 C-328.30390625 48.030625 -327.6078125 47.06125 -326.890625 46.0625 C-312.75625176 26.81569389 -296.42128948 9.0057376 -277 -5 C-275.9584375 -5.763125 -274.916875 -6.52625 -273.84375 -7.3125 C-199.47029629 -60.33119968 -95.2464143 -65.31685486 0 0 Z " fill="#000000" transform="translate(398,79)" data-index="0" style="opacity: 1; visibility: visible; fill: rgb(255, 255, 255);"></path>
<path d="M0 0 C4.18837807 3.96234919 4.89755141 7.95927796 5.08607101 13.54927063 C5.14433569 16.74327008 5.12521169 19.93385094 5.10053635 23.12812805 C5.1086722 24.89119262 5.11935846 26.65424698 5.1323967 28.4172821 C5.15970453 33.19430005 5.14916372 37.97053882 5.13012218 42.74757004 C5.11490847 47.75180375 5.12902587 52.75597173 5.13843918 57.76020813 C5.14934842 66.16324311 5.13498692 74.56596147 5.10639572 82.96894836 C5.07374323 92.67753759 5.0843207 102.38537078 5.11735415 112.09394169 C5.14460107 120.43643944 5.148415 128.77870987 5.13272214 137.12123775 C5.12337832 142.10084357 5.12209215 147.08009426 5.14194107 152.05967712 C5.15930158 156.7418562 5.14720104 161.42306264 5.11257553 166.10513687 C5.1046567 167.8211722 5.10689564 169.53728969 5.12015152 171.25329208 C5.22232503 185.82580632 5.22232503 185.82580632 1.52173996 190.39497375 C-1.68912059 193.42357168 -5.26600437 194.86981975 -9.67583084 194.9210968 C-15.14842993 193.43700213 -18.75525341 190.77326931 -21.67583084 185.9210968 C-22.30782986 182.39123631 -22.30782986 182.39123631 -22.31747818 178.41317749 C-22.3259837 177.67795048 -22.33448922 176.94272346 -22.34325248 176.18521684 C-22.36546134 173.732181 -22.35210491 171.28067095 -22.33867264 168.82759094 C-22.34708871 167.06467608 -22.35761511 165.30177021 -22.37009048 163.53887939 C-22.39713655 158.7577657 -22.39243829 153.97717389 -22.38038993 149.1960175 C-22.37325654 145.20241911 -22.38175934 141.2089171 -22.39029533 137.21532625 C-22.41024663 127.79302406 -22.4046795 118.37097559 -22.38261795 108.94868469 C-22.36025518 99.23274755 -22.37785196 89.51747487 -22.41566724 79.80160052 C-22.44691091 71.45489094 -22.45481414 63.10838695 -22.44371349 54.76162618 C-22.43722876 49.77863543 -22.43921746 44.79602806 -22.46303749 39.81308174 C-22.48429866 35.12683927 -22.4763001 30.44153365 -22.44594383 25.75535011 C-22.43961946 24.03769333 -22.44347004 22.31996371 -22.45835495 20.60235977 C-22.57452963 6.01168613 -22.57452963 6.01168613 -18.80798721 1.44232178 C-13.02605712 -3.88628368 -6.52576834 -4.20130252 0 0 Z " fill="#000000" transform="translate(328.67583084106445,160.0789031982422)" data-index="1" style="opacity: 1; visibility: visible; fill: rgb(255, 255, 255);"></path>
<path d="M0 0 C4.18837807 3.96234919 4.89755141 7.95927796 5.08607101 13.54927063 C5.14433569 16.74327008 5.12521169 19.93385094 5.10053635 23.12812805 C5.1086722 24.89119262 5.11935846 26.65424698 5.1323967 28.4172821 C5.15970453 33.19430005 5.14916372 37.97053882 5.13012218 42.74757004 C5.11490847 47.75180375 5.12902587 52.75597173 5.13843918 57.76020813 C5.14934842 66.16324311 5.13498692 74.56596147 5.10639572 82.96894836 C5.07374323 92.67753759 5.0843207 102.38537078 5.11735415 112.09394169 C5.14460107 120.43643944 5.148415 128.77870987 5.13272214 137.12123775 C5.12337832 142.10084357 5.12209215 147.08009426 5.14194107 152.05967712 C5.15930158 156.7418562 5.14720104 161.42306264 5.11257553 166.10513687 C5.1046567 167.8211722 5.10689564 169.53728969 5.12015152 171.25329208 C5.22232503 185.82580632 5.22232503 185.82580632 1.52173996 190.39497375 C-1.68912059 193.42357168 -5.26600437 194.86981975 -9.67583084 194.9210968 C-15.14842993 193.43700213 -18.75525341 190.77326931 -21.67583084 185.9210968 C-22.30782986 182.39123631 -22.30782986 182.39123631 -22.31747818 178.41317749 C-22.3259837 177.67795048 -22.33448922 176.94272346 -22.34325248 176.18521684 C-22.36546134 173.732181 -22.35210491 171.28067095 -22.33867264 168.82759094 C-22.34708871 167.06467608 -22.35761511 165.30177021 -22.37009048 163.53887939 C-22.39713655 158.7577657 -22.39243829 153.97717389 -22.38038993 149.1960175 C-22.37325654 145.20241911 -22.38175934 141.2089171 -22.39029533 137.21532625 C-22.41024663 127.79302406 -22.4046795 118.37097559 -22.38261795 108.94868469 C-22.36025518 99.23274755 -22.37785196 89.51747487 -22.41566724 79.80160052 C-22.44691091 71.45489094 -22.45481414 63.10838695 -22.44371349 54.76162618 C-22.43722876 49.77863543 -22.43921746 44.79602806 -22.46303749 39.81308174 C-22.48429866 35.12683927 -22.4763001 30.44153365 -22.44594383 25.75535011 C-22.43961946 24.03769333 -22.44347004 22.31996371 -22.45835495 20.60235977 C-22.57452963 6.01168613 -22.57452963 6.01168613 -18.80798721 1.44232178 C-13.02605712 -3.88628368 -6.52576834 -4.20130252 0 0 Z " fill="#000000" transform="translate(200.67583084106445,160.0789031982422)" data-index="2" style="opacity: 1; visibility: visible; fill: rgb(255, 255, 255);"></path>
</svg>