<?xml version="1.0" standalone="no"?>
<!DOCTYPE svg PUBLIC "-//W3C//DTD SVG 20010904//EN"
 "http://www.w3.org/TR/2001/REC-SVG-20010904/DTD/svg10.dtd">
<svg version="1.0" xmlns="http://www.w3.org/2000/svg"
 width="512.000000pt" height="512.000000pt" viewBox="0 0 512.000000 512.000000"
 preserveAspectRatio="xMidYMid meet">
<metadata>
Created by potrace 1.11, written by Peter Selinger 2001-2013
</metadata>
<g transform="translate(0.000000,512.000000) scale(0.100000,-0.100000)"
fill="#000000" stroke="none">
<path d="M3310 3608 l0 -252 -42 41 c-73 69 -129 91 -234 91 -219 0 -349 -181
-343 -481 1 -55 8 -125 16 -155 31 -120 102 -218 190 -262 41 -22 61 -25 143
-25 110 1 167 22 232 87 l38 38 1 -32 c3 -76 1 -73 52 -76 l47 -3 0 640 0 641
-50 0 -50 0 0 -252z m-134 -236 c45 -23 110 -90 124 -128 6 -14 10 -119 10
-233 l0 -208 -30 -41 c-39 -54 -92 -88 -158 -103 -60 -12 -140 -6 -181 15 -98
51 -154 183 -150 356 5 190 57 300 166 351 52 24 163 19 219 -9z"/>
<path d="M3683 3780 c-58 -67 35 -152 98 -89 24 24 20 75 -8 97 -25 18 -71 15
-90 -8z"/>
<path d="M410 3185 l0 -605 49 0 c30 0 51 5 53 13 5 14 0 924 -5 980 -2 20 -1
37 3 37 4 0 26 -44 49 -97 22 -54 119 -285 215 -513 l174 -415 41 -3 c40 -3
42 -2 57 35 8 21 19 47 24 58 5 11 26 61 46 110 20 50 42 104 50 120 7 17 76
180 153 364 78 184 144 338 149 343 5 5 8 -34 6 -89 -3 -88 -5 -651 -4 -860
l0 -83 50 0 50 0 0 605 0 605 -69 0 -69 0 -77 -187 c-42 -104 -83 -201 -91
-218 -50 -114 -264 -637 -264 -647 0 -22 -17 6 -48 77 -16 39 -100 241 -187
450 -86 209 -163 394 -170 410 -7 17 -21 49 -30 73 l-17 42 -69 0 -69 0 0
-605z"/>
<path d="M2071 3474 c-115 -41 -202 -131 -246 -254 -50 -143 -37 -352 31 -468
33 -56 101 -121 151 -146 21 -10 46 -22 56 -27 32 -17 160 -22 222 -9 79 16
122 39 179 95 40 38 46 48 35 61 -30 36 -48 37 -86 3 -63 -55 -117 -73 -213
-73 -70 0 -93 4 -130 23 -97 51 -163 154 -174 275 l-6 56 322 0 321 0 -6 93
c-11 194 -89 318 -232 368 -66 23 -162 24 -224 3z m201 -92 c77 -31 143 -131
155 -233 l6 -49 -268 0 -268 0 7 39 c16 101 85 198 170 237 53 25 145 27 198
6z"/>
<path d="M4260 3481 c-128 -29 -218 -110 -244 -222 -5 -25 -3 -27 32 -31 50
-6 68 0 69 23 6 71 103 138 210 145 163 11 253 -63 255 -209 1 -96 15 -87
-135 -87 -195 0 -298 -29 -379 -106 -52 -49 -70 -95 -71 -179 -1 -82 21 -133
78 -183 50 -44 98 -63 180 -69 112 -9 215 27 295 103 l35 33 3 -32 c1 -18 4
-41 6 -52 3 -11 5 -23 5 -27 1 -5 26 -8 57 -8 49 0 55 2 49 18 -17 45 -22 120
-23 370 -1 149 -4 285 -7 302 -14 80 -76 154 -160 191 -54 24 -191 35 -255 20z
m322 -564 c0 -107 -8 -128 -66 -181 -72 -67 -210 -103 -292 -76 -181 60 -173
274 12 333 68 22 83 24 223 23 l124 -1 -1 -98z"/>
<path d="M3680 3030 l0 -450 50 0 50 0 0 450 0 450 -50 0 -50 0 0 -450z"/>
<path d="M1512 2091 c-66 -23 -117 -63 -159 -125 -53 -77 -66 -134 -69 -291
-3 -165 6 -229 46 -310 36 -75 89 -127 161 -159 78 -34 209 -32 289 5 91 43
151 120 166 217 l7 43 -38 -3 c-36 -3 -38 -5 -50 -50 -18 -71 -56 -122 -114
-151 -43 -21 -62 -24 -128 -22 -102 3 -149 28 -201 105 -52 78 -62 133 -59
314 4 193 16 235 92 311 58 59 100 74 189 71 119 -4 209 -78 223 -185 6 -40 6
-41 45 -41 l40 0 -6 41 c-13 95 -68 171 -156 215 -72 36 -196 43 -278 15z"/>
<path d="M3383 2092 c-111 -40 -171 -107 -178 -199 -10 -135 69 -206 310 -282
157 -50 208 -87 224 -162 16 -76 -18 -140 -95 -179 -42 -21 -62 -25 -139 -24
-73 0 -98 5 -134 23 -60 31 -98 76 -112 133 -12 47 -14 48 -50 48 l-38 0 6
-37 c16 -100 83 -174 197 -213 61 -21 212 -21 278 -1 49 15 117 68 141 108 26
46 36 122 21 172 -29 99 -99 149 -295 211 -190 60 -250 115 -234 217 17 116
205 181 338 118 63 -30 117 -109 117 -172 0 -8 15 -13 40 -13 l41 0 -7 38
c-15 92 -74 165 -163 205 -66 29 -200 33 -268 9z"/>
<path d="M2144 1640 l0 -450 39 0 38 0 -2 380 c-1 209 0 382 3 386 4 3 9 -8
13 -25 4 -17 11 -33 16 -36 5 -4 9 -12 9 -19 0 -8 10 -35 22 -62 12 -27 77
-177 143 -334 l121 -285 33 0 32 0 125 295 c69 162 143 338 165 390 25 61 39
86 39 70 1 -14 1 -95 0 -180 -2 -150 -2 -534 -1 -566 1 -11 10 -14 38 -12 l38
3 0 435 c1 239 -1 441 -3 448 -3 7 -23 12 -52 12 l-48 0 -47 -112 c-114 -268
-268 -635 -277 -658 -9 -24 -10 -24 -28 20 -11 25 -73 174 -139 331 -66 157
-132 316 -146 352 l-27 67 -52 0 -52 0 0 -450z"/>
</g>
</svg>
