<?xml version="1.0" encoding="utf-8"?>
<!-- Generator: Adobe Illustrator 16.0.0, SVG Export Plug-In . SVG Version: 6.00 Build 0)  -->
<!DOCTYPE svg PUBLIC "-//W3C//DTD SVG 1.1//EN" "http://www.w3.org/Graphics/SVG/1.1/DTD/svg11.dtd">
<svg version="1.1" id="Layer_1" xmlns="http://www.w3.org/2000/svg" xmlns:xlink="http://www.w3.org/1999/xlink" x="0px" y="0px"
	 width="339px" height="56px" viewBox="0 0 339 56" enable-background="new 0 0 339 56" xml:space="preserve">
<path fill="#093" d="M226.922,38.197c-0.542,4.369-1.967,7.646-4.276,9.83c-2.31,2.184-5.737,3.276-10.284,3.276
	c-4.594,0-8.24-1.772-10.938-5.317c-2.698-3.545-4.046-8.295-4.046-14.25v-6.31c0-6.168,1.384-11,4.152-14.498
	c2.768-3.498,6.485-5.247,11.149-5.247c8.411,0,13.158,4.381,14.242,13.141h4.382c-0.518-5.266-2.374-9.386-5.566-12.362
	c-3.192-2.975-7.545-4.463-13.058-4.463c-3.911,0-7.368,0.962-10.372,2.887c-3.004,1.925-5.307,4.658-6.909,8.2
	c-1.603,3.542-2.403,7.604-2.403,12.185v6.694c0.023,4.511,0.836,8.519,2.438,12.025s3.87,6.216,6.803,8.129
	s6.308,2.869,10.125,2.869c5.465,0,9.842-1.44,13.128-4.321c3.287-2.881,5.224-7.037,5.813-12.468H226.922z"/>
<path fill="#093" d="M241.871,2.706v51.572h4.347V31.68l-0.353-22.705l19.083,45.303h3.357l19.154-45.48l-0.354,23.023v22.457
	h4.347V2.706h-5.795l-19.048,45.516L247.631,2.706H241.871z"/>
<path fill="#093" d="M329.971,48.646c-2.427,1.771-5.643,2.657-9.647,2.657c-4.5,0-8.105-1.051-10.814-3.153
	c-2.709-2.101-4.064-4.97-4.064-8.607h-4.347c0,3.023,0.783,5.703,2.35,8.041c1.566,2.338,3.864,4.156,6.891,5.455
	c3.027,1.298,6.355,1.948,9.983,1.948c5.301,0,9.571-1.228,12.811-3.684c3.239-2.456,4.859-5.714,4.859-9.776
	c0-2.573-0.601-4.805-1.802-6.694s-2.992-3.512-5.372-4.871c-2.38-1.357-5.878-2.669-10.496-3.934
	c-4.618-1.265-7.975-2.726-10.072-4.382c-2.097-1.655-3.145-3.796-3.145-6.421c0-2.838,1.166-5.138,3.499-6.9s5.465-2.644,9.4-2.644
	c4.052,0,7.28,1.072,9.683,3.216c2.403,2.144,3.604,4.979,3.604,8.508h4.382c0-2.904-0.742-5.537-2.227-7.898
	c-1.484-2.361-3.575-4.203-6.272-5.526c-2.698-1.322-5.755-1.983-9.171-1.983c-5.042,0-9.182,1.234-12.421,3.702
	c-3.24,2.468-4.859,5.673-4.859,9.617c0,4.062,1.743,7.344,5.23,9.847c2.45,1.771,6.337,3.406,11.662,4.906
	c5.324,1.5,8.988,3.082,10.991,4.747c2.002,1.665,3.004,3.926,3.004,6.783C333.611,44.525,332.397,46.875,329.971,48.646z"/>
<path fill="#111" d="M-0.013,2.829V54.28h4.335V31.734L3.97,9.083L23.004,54.28h3.349L45.457,8.907l-0.353,22.969V54.28h4.335
	V2.829h-5.781L24.661,48.237L5.732,2.829H-0.013z"/>
<path fill="#111" d="M89.728,48.237l-2.644-2.014c-1.41,1.814-2.979,3.133-4.706,3.958c-1.728,0.825-3.719,1.237-5.975,1.237
	c-3.76,0-6.879-1.443-9.358-4.329c-2.479-2.885-3.718-6.496-3.718-10.831v-0.813h27.211v-2.367c0-5.489-1.357-9.818-4.071-12.987
	c-2.714-3.168-6.386-4.753-11.015-4.753c-2.961,0-5.71,0.843-8.248,2.527c-2.538,1.685-4.518,3.999-5.939,6.944
	c-1.422,2.945-2.133,6.254-2.133,9.93v1.52c0,3.557,0.728,6.767,2.186,9.629c1.457,2.862,3.495,5.095,6.115,6.696
	c2.62,1.602,5.552,2.403,8.794,2.403C82.126,54.986,86.626,52.737,89.728,48.237L89.728,48.237z M83.207,22.405
	c1.974,2.31,3.019,5.301,3.137,8.976v0.459H63.468c0.47-3.934,1.792-7.068,3.965-9.4c2.173-2.333,4.847-3.499,8.019-3.499
	C78.648,18.942,81.233,20.097,83.207,22.405z"/>
<path fill="#111" d="M97.06,35.304c0,6.031,1.345,10.819,4.036,14.364c2.69,3.546,6.233,5.318,10.627,5.318
	c5.24,0,9.211-1.931,11.914-5.795l0.176,5.089h3.948V0.002h-4.194v21.449c-2.703-4.075-6.627-6.113-11.773-6.113
	c-4.535,0-8.125,1.762-10.768,5.283c-2.644,3.522-3.965,8.251-3.965,14.188V35.304z M104.285,23.201
	c1.974-2.792,4.735-4.188,8.283-4.188c5.146,0,8.812,2.486,10.998,7.456V44.42c-2.186,4.594-5.875,6.891-11.068,6.891
	c-3.548,0-6.298-1.408-8.248-4.223c-1.951-2.814-2.926-6.661-2.926-11.538C101.324,30.109,102.312,25.992,104.285,23.201z"/>
<path fill="#111" d="M143.586,16.045h-4.23V54.28h4.23V16.045z M139.392,7.003c0.517,0.539,1.221,0.808,2.115,0.808
	c0.893,0,1.604-0.269,2.132-0.808c0.529-0.538,0.793-1.205,0.793-2.001s-0.265-1.469-0.793-2.019s-1.24-0.826-2.132-0.826
	c-0.894,0-1.598,0.276-2.115,0.826c-0.517,0.55-0.775,1.223-0.775,2.019S138.875,6.465,139.392,7.003z"/>
<path fill="#111" d="M183.628,54.28v-0.424c-0.775-1.837-1.163-4.605-1.163-8.304V27.459c-0.071-3.817-1.334-6.791-3.789-8.923
	c-2.456-2.132-5.811-3.198-10.063-3.198c-4.112,0-7.578,1.113-10.398,3.34c-2.82,2.226-4.23,4.858-4.23,7.897l4.23,0.036
	c0-2.121,0.963-3.934,2.89-5.442c1.927-1.507,4.359-2.262,7.296-2.262c3.219,0,5.669,0.784,7.349,2.35
	c1.68,1.567,2.52,3.716,2.52,6.449v4.347h-7.648c-5.522,0-9.829,1.083-12.918,3.251c-3.09,2.167-4.635,5.112-4.635,8.834
	c0,3.134,1.134,5.725,3.402,7.774c2.267,2.049,5.234,3.074,8.9,3.074c2.561,0,4.987-0.524,7.279-1.572
	c2.291-1.048,4.177-2.539,5.657-4.47c0.117,2.356,0.388,4.134,0.811,5.336H183.628z M159.677,49.121
	c-1.586-1.414-2.379-3.192-2.379-5.336c0-2.615,1.186-4.67,3.56-6.167c2.373-1.496,5.663-2.267,9.869-2.314h7.543v8.41
	c-1.01,2.285-2.625,4.111-4.846,5.477c-2.221,1.367-4.741,2.05-7.561,2.05C163.325,51.241,161.263,50.534,159.677,49.121z"/>
</svg>
